<?xml version="1.0" standalone="no"?><!DOCTYPE svg PUBLIC "-//W3C//DTD SVG 1.1//EN" "http://www.w3.org/Graphics/SVG/1.1/DTD/svg11.dtd"><svg t="1694187618122" class="icon" viewBox="0 0 1024 1024" version="1.1" xmlns="http://www.w3.org/2000/svg" p-id="4042" xmlns:xlink="http://www.w3.org/1999/xlink" width="200" height="200"><path d="M253.952 1003.52h516.096c69.632 0 126.976-57.344 126.976-126.976V147.456c0-69.632-57.344-126.976-126.976-126.976h-323.584c-32.768 0-65.536 12.288-86.016 32.768L167.936 237.568c-24.576 20.48-40.96 57.344-40.96 94.208v544.768c0 69.632 57.344 126.976 126.976 126.976z m372.736-323.584c24.576 16.384 45.056 40.96 61.44 65.536 24.576 40.96-4.096 90.112-53.248 90.112h-245.76c-45.056 0-73.728-49.152-53.248-90.112 16.384-28.672 36.864-49.152 61.44-69.632 8.192-8.192 20.48-8.192 32.768 0 24.576 12.288 53.248 16.384 81.92 16.384s57.344-8.192 86.016-16.384c8.192-4.096 20.48-4.096 28.672 4.096z m-16.384-159.744c0 53.248-45.056 94.208-98.304 94.208-53.248 0-94.208-40.96-94.208-94.208 0-53.248 45.056-94.208 94.208-94.208 53.248-4.096 98.304 40.96 98.304 94.208zM208.896 327.68c0-12.288 8.192-28.672 16.384-32.768l188.416-180.224c4.096-4.096 16.384-12.288 32.768-12.288h4.096v155.648c0 40.96-36.864 77.824-77.824 77.824l-163.84-8.192z" p-id="4043" fill="#ffffff"></path></svg>